<svg width="160" height="31" viewBox="0 0 160 31" fill="none" xmlns="http://www.w3.org/2000/svg">
<path d="M13.72 24.56C9 24.56 4.88 22.56 4.88 19.48V19.2H4.48V30H0.68V12.68C0.68 5.76 5.4 1.6 13.24 1.6C21.08 1.6 25.84 5.96 25.84 13.16C25.84 20.36 21.16 24.56 13.72 24.56ZM4.48 13.16C4.48 17.6 7.76 21.08 13.56 21.08C18.84 21.08 22 18.12 22 13.16C22 8 18.88 5.16 13.24 5.16C7.44 5.16 4.48 7.84 4.48 13.16ZM49.0144 20.44H32.1744C32.2544 24.24 34.8944 26.92 38.9744 26.92C42.2144 26.92 44.4144 25.16 45.1344 22.44H49.0144C48.1344 27.44 44.4144 30.4 38.8944 30.4C32.5744 30.4 28.3744 26.24 28.3744 20C28.3744 13.76 32.5744 9.6 38.8944 9.6C44.9344 9.6 49.0544 13.28 49.0144 19.32V20.44ZM32.4544 17.52H45.0544C44.4544 14.6 42.2144 12.84 38.9344 12.84C35.6544 12.84 33.2544 14.8 32.4544 17.52ZM56.1197 19.36V30H52.3197V19.68C52.3197 13.64 56.3597 9.6 62.5997 9.6C68.6397 9.6 72.6797 13.64 72.6797 19.68V30H68.8397V19.36C68.8397 15.64 66.2797 13.16 62.4397 13.16C58.7197 13.16 56.1197 15.68 56.1197 19.36ZM75.9916 19.72C75.9916 13.64 79.9516 9.6 85.7116 9.6C90.4316 9.6 92.8316 11.92 92.8316 13.56V13.92H93.2316V-2.38419e-06H97.0316V20C97.0316 26.24 92.8316 30.4 86.5116 30.4C80.1516 30.4 75.9916 26.24 75.9916 19.72ZM79.7916 20C79.7916 24.08 82.4716 26.84 86.5116 26.84C90.6316 26.84 93.1916 24.2 93.1916 20C93.1916 15.92 91.3516 13.16 86.3916 13.16C82.2716 13.16 79.7916 15.76 79.7916 20ZM121.007 20.44H104.167C104.247 24.24 106.887 26.92 110.967 26.92C114.207 26.92 116.407 25.16 117.127 22.44H121.007C120.127 27.44 116.407 30.4 110.887 30.4C104.567 30.4 100.367 26.24 100.367 20C100.367 13.76 104.567 9.6 110.887 9.6C116.927 9.6 121.047 13.28 121.007 19.32V20.44ZM104.447 17.52H117.047C116.447 14.6 114.207 12.84 110.927 12.84C107.647 12.84 105.247 14.8 104.447 17.52ZM144.796 20.44H127.956C128.036 24.24 130.676 26.92 134.756 26.92C137.996 26.92 140.196 25.16 140.916 22.44H144.796C143.916 27.44 140.196 30.4 134.676 30.4C128.356 30.4 124.156 26.24 124.156 20C124.156 13.76 128.356 9.6 134.676 9.6C140.716 9.6 144.836 13.28 144.796 19.32V20.44ZM128.236 17.52H140.836C140.236 14.6 137.996 12.84 134.716 12.84C131.436 12.84 129.036 14.8 128.236 17.52ZM159.381 30C151.301 30 148.101 26.6 148.101 19V5.84H151.901V10.24H159.381V13.64H151.901V19.56C151.901 24.48 153.741 26.36 159.381 26.36V30Z" fill="#9C27B0"/>
</svg>
