<svg width="25" height="24" viewBox="0 0 25 24" fill="none" xmlns="http://www.w3.org/2000/svg">
<path d="M21.556 2.61092L20.8489 3.31801L20.8489 3.31803L21.556 2.61092ZM21.556 21.389L20.849 20.6819L20.8489 20.682L21.556 21.389ZM2.77791 21.389L3.48503 20.682L3.485 20.6819L2.77791 21.389ZM2.77791 2.61092L3.48501 3.31803L3.48502 3.31802L2.77791 2.61092ZM22.5199 18.8235C23.0722 18.8235 23.5199 18.3758 23.5199 17.8235C23.5199 17.2712 23.0722 16.8235 22.5199 16.8235V17.8235V18.8235ZM1.81405 16.8235C1.26177 16.8235 0.814051 17.2712 0.814051 17.8235C0.814051 18.3758 1.26177 18.8235 1.81405 18.8235V17.8235V16.8235ZM22.5199 7.82353C23.0722 7.82353 23.5199 7.37581 23.5199 6.82353C23.5199 6.27125 23.0722 5.82353 22.5199 5.82353V6.82353V7.82353ZM1.81405 5.82353C1.26177 5.82353 0.814051 6.27125 0.814051 6.82353C0.814051 7.37581 1.26177 7.82353 1.81405 7.82353V6.82353V5.82353ZM12.6991 10.348L13.1727 9.46722L13.1727 9.46721L12.6991 10.348ZM12.6991 13.652L13.1727 14.5328L13.1727 14.5328L12.6991 13.652ZM12.167 1V2C14.788 2 16.6531 2.00212 18.0687 2.19245C19.4556 2.3789 20.2603 2.72934 20.8489 3.31801L21.556 2.61092L22.2632 1.90383C21.241 0.881581 19.9438 0.426554 18.3352 0.210282C16.7554 -0.00212371 14.7314 0 12.167 0V1ZM21.556 2.61092L20.8489 3.31803C21.4376 3.90672 21.7881 4.71142 21.9745 6.09825C22.1649 7.51386 22.167 9.379 22.167 12H23.167H24.167C24.167 9.43554 24.1691 7.4116 23.9567 5.83175C23.7404 4.22313 23.2854 2.92602 22.2631 1.9038L21.556 2.61092ZM23.167 12H22.167C22.167 14.621 22.1649 16.4861 21.9745 17.9017C21.7881 19.2886 21.4376 20.0933 20.849 20.6819L21.556 21.389L22.2631 22.0962C23.2854 21.074 23.7404 19.7769 23.9567 18.1682C24.1691 16.5884 24.167 14.5644 24.167 12H23.167ZM21.556 21.389L20.8489 20.682C20.2603 21.2707 19.4556 21.6211 18.0687 21.8075C16.6531 21.9979 14.788 22 12.167 22V23V24C14.7314 24 16.7554 24.0021 18.3352 23.7897C19.9438 23.5734 21.241 23.1184 22.2632 22.0961L21.556 21.389ZM12.167 23V22C9.54599 22 7.68085 21.9979 6.26525 21.8075C4.87841 21.6211 4.07371 21.2707 3.48503 20.682L2.77791 21.389L2.07079 22.0961C3.09301 23.1184 4.39013 23.5734 5.99874 23.7897C7.57859 24.0021 9.60254 24 12.167 24V23ZM2.77791 21.389L3.485 20.6819C2.89633 20.0933 2.5459 19.2886 2.35944 17.9017C2.16912 16.4861 2.16699 14.621 2.16699 12H1.16699H0.166992C0.166992 14.5644 0.164868 16.5884 0.377274 18.1682C0.593546 19.7768 1.04857 21.074 2.07082 22.0962L2.77791 21.389ZM1.16699 12H2.16699C2.16699 9.379 2.16912 7.51385 2.35944 6.09825C2.5459 4.71141 2.89633 3.90671 3.48501 3.31803L2.77791 2.61092L2.0708 1.90381C1.04858 2.92603 0.593547 4.22314 0.377274 5.83175C0.164868 7.4116 0.166992 9.43554 0.166992 12H1.16699ZM2.77791 2.61092L3.48502 3.31802C4.0737 2.72933 4.87841 2.3789 6.26524 2.19245C7.68085 2.00212 9.54599 2 12.167 2V1V0C9.60254 0 7.57859 -0.00212383 5.99875 0.210282C4.39013 0.426555 3.09302 0.881583 2.0708 1.90381L2.77791 2.61092ZM22.5199 17.8235V16.8235H1.81405V17.8235V18.8235H22.5199V17.8235ZM22.5199 6.82353V5.82353H1.81405V6.82353V7.82353H22.5199V6.82353ZM14.7552 12H15.7552C15.7552 11.2286 15.2405 10.7397 14.8345 10.4405C14.4205 10.1353 13.8291 9.82014 13.1727 9.46722L12.6991 10.348L12.2256 11.2287C12.9399 11.6128 13.3765 11.8504 13.6479 12.0504C13.9273 12.2564 13.7552 12.225 13.7552 12H14.7552ZM12.6991 10.348L13.1727 9.46721C12.5056 9.10858 11.9115 8.78649 11.4182 8.60395C10.9201 8.41967 10.2705 8.27816 9.62888 8.61787L10.0968 9.50165L10.5647 10.3854C10.4411 10.4509 10.398 10.359 10.7242 10.4797C11.0551 10.6021 11.5031 10.8403 12.2256 11.2288L12.6991 10.348ZM10.0968 9.50165L9.62888 8.61787C8.95918 8.97244 8.74044 9.61203 8.65606 10.1397C8.57567 10.6425 8.57876 11.295 8.57876 12H9.57876H10.5788C10.5788 11.2223 10.5818 10.7628 10.631 10.4555C10.6761 10.1733 10.7164 10.3051 10.5647 10.3854L10.0968 9.50165ZM9.57876 12H8.57876C8.57876 12.705 8.57567 13.3575 8.65606 13.8603C8.74044 14.388 8.95917 15.0276 9.62891 15.3822L10.0968 14.4984L10.5647 13.6146C10.7164 13.6949 10.6761 13.8267 10.631 13.5445C10.5818 13.2373 10.5788 12.7777 10.5788 12H9.57876ZM10.0968 14.4984L9.62891 15.3822C10.2705 15.7218 10.9201 15.5803 11.4182 15.396C11.9115 15.2135 12.5056 14.8914 13.1727 14.5328L12.6991 13.652L12.2256 12.7712C11.5031 13.1597 11.0551 13.3979 10.7242 13.5203C10.3979 13.641 10.4411 13.5491 10.5647 13.6146L10.0968 14.4984ZM12.6991 13.652L13.1727 14.5328C13.8291 14.1799 14.4205 13.8646 14.8345 13.5595C15.2405 13.2603 15.7552 12.7714 15.7552 12H14.7552H13.7552C13.7552 11.775 13.9273 11.7436 13.6479 11.9496C13.3765 12.1496 12.9399 12.3871 12.2256 12.7713L12.6991 13.652ZM17.3435 17.8235H16.3435V23H17.3435H18.3435V17.8235H17.3435ZM17.3435 1H16.3435V6.82353H17.3435H18.3435V1H17.3435ZM12.167 17.8235H11.167V23H12.167H13.167V17.8235H12.167ZM12.167 1H11.167V6.82353H12.167H13.167V1H12.167ZM6.34346 17.8235H5.34346V23H6.34346H7.34346V17.8235H6.34346ZM6.34346 1H5.34346V6.82353H6.34346H7.34346V1H6.34346Z" fill="#374151"/>
</svg>
